<svg width="126" height="30" viewBox="0 0 126 30" fill="none" xmlns="http://www.w3.org/2000/svg">
<path d="M95 15V30H106.843H118.682L119.153 29.3304C119.413 28.9592 119.746 28.4847 119.892 28.2742C120.462 27.4554 120.55 27.3291 120.814 26.9579C121.166 26.4643 121.56 25.9056 121.74 25.6378C121.816 25.523 122.027 25.2207 122.207 24.9681C122.386 24.7156 122.67 24.3176 122.83 24.088C122.991 23.8546 123.29 23.4337 123.489 23.1505C123.688 22.8673 124.009 22.4043 124.204 22.1288C124.399 21.8495 124.702 21.4247 124.878 21.1798L125.191 20.7398V10.3699V0H110.096H95V15ZM117.136 7.42347C117.511 7.6875 117.971 8.00893 118.166 8.13903C118.357 8.26913 118.575 8.42602 118.648 8.48725C118.77 8.59056 118.774 8.60587 118.724 8.67857C118.694 8.72066 118.548 8.9273 118.407 9.13393C117.955 9.78827 117.274 10.7564 116.872 11.3189C116.727 11.5217 116.524 11.8087 116.421 11.9579C116.233 12.2334 115.839 12.7997 115.395 13.4273C115.02 13.9592 114.477 14.736 114.125 15.2411C113.949 15.486 113.67 15.8839 113.501 16.1212C113.333 16.3584 113.13 16.6454 113.054 16.7602C112.87 17.0281 112.483 17.5829 112.147 18.0536C111.665 18.7385 111.454 19.0332 111.202 19.4005C111.064 19.5995 110.739 20.0663 110.474 20.4337C110.214 20.801 109.885 21.2679 109.747 21.4668C109.503 21.8227 109.284 22.1365 108.841 22.7602C108.722 22.9324 108.611 23.074 108.599 23.074C108.588 23.074 108.439 22.9707 108.267 22.8444C107.945 22.611 107.333 22.1786 106.824 21.8304C106.667 21.7232 106.369 21.5128 106.166 21.3673C105.511 20.9005 105.102 20.6135 104.723 20.3495C103.923 19.7946 103.732 19.6569 103.399 19.4196C103.212 19.2819 102.944 19.0982 102.806 19.0064C102.668 18.9145 102.416 18.7385 102.244 18.6122C101.872 18.3482 101.513 18.0918 101.459 18.0574C101.421 18.0344 101.788 17.4681 102.175 16.9515C102.259 16.8367 102.393 16.6454 102.473 16.5306C102.806 16.037 103.124 15.5931 103.151 15.5816C103.166 15.5778 103.372 15.7117 103.614 15.8839C103.855 16.0561 104.138 16.2513 104.241 16.324C104.348 16.3929 104.54 16.5306 104.673 16.6263C104.807 16.7219 105.083 16.9133 105.286 17.0548C105.489 17.1964 105.764 17.3916 105.894 17.4872C106.116 17.648 106.629 18.0077 107.505 18.6161C107.7 18.7538 107.865 18.8648 107.876 18.8648C107.884 18.8648 108.018 18.6811 108.179 18.4515C108.339 18.2258 108.542 17.9388 108.63 17.8125C108.722 17.6862 108.871 17.4719 108.967 17.3342C109.128 17.1008 109.284 16.8788 109.935 15.9605C110.077 15.7577 110.283 15.463 110.394 15.3023C110.501 15.1416 110.834 14.6671 111.129 14.2538C111.423 13.8367 111.756 13.3661 111.864 13.2054C112.085 12.8839 112.346 12.5166 113.061 11.4987C113.907 10.301 114.163 9.93367 114.339 9.68112C114.435 9.54337 114.615 9.28699 114.745 9.10714C114.871 8.9273 115.07 8.64413 115.189 8.47577C115.43 8.12755 115.816 7.56888 116.119 7.14031C116.302 6.87628 116.333 6.85332 116.394 6.89541C116.432 6.92219 116.765 7.15944 117.136 7.42347Z" fill="black"/>
<path d="M18.1328 14.8146V23.9791H19.5678H21.0027L20.9951 14.8261L20.9836 5.66918L19.5601 5.6577L18.1328 5.65004V14.8146Z" fill="black"/>
<path d="M60.4461 9.3693L60.4347 11.2175L58.9155 11.229L57.3926 11.2366V12.442V13.6474L58.9155 13.655L60.4347 13.6665L60.4576 17.4548C60.4806 21.6027 60.4653 21.377 60.714 22.0849C61.1196 23.2481 62.103 24.0096 63.5342 24.266C64.0163 24.354 65.1451 24.3846 65.7612 24.3272C66.4461 24.2622 67.177 24.0976 67.5482 23.9216L67.6859 23.8565V22.6359C67.6859 21.9624 67.6783 21.4152 67.6706 21.4152C67.663 21.4152 67.5711 21.4497 67.4678 21.4956C67.2459 21.5912 66.6987 21.7443 66.3084 21.8247C65.9487 21.8935 64.9844 21.905 64.7204 21.84C64.1005 21.6907 63.626 21.2507 63.4576 20.669C63.2969 20.118 63.2854 19.919 63.2854 16.7162V13.6474H65.4857H67.6859V12.442V11.2366H65.4857H63.2854V9.38078V7.52491H61.8696H60.4538L60.4461 9.3693Z" fill="black"/>
<path d="M6.63418 10.8768C6.18264 10.9457 5.52448 11.0567 5.32168 11.1026C5.06147 11.1638 4.36122 11.3819 4.29999 11.424C4.28086 11.4393 4.16606 11.4891 4.05127 11.535C3.86377 11.6115 3.54616 11.7723 3.16734 11.9789C2.82295 12.1702 2.22984 12.6371 1.85101 13.0159C0.951777 13.9151 0.377797 14.9674 0.102287 16.211C0.0372362 16.5057 0.0181035 16.7467 0.00662393 17.4738C-0.0086822 18.2697 -0.00102914 18.4304 0.0678484 18.859C0.282134 20.1064 0.867593 21.2506 1.75535 22.1422C1.98877 22.3756 2.44795 22.7697 2.6431 22.8998C3.02958 23.1562 3.11759 23.2136 3.17116 23.2404C3.20178 23.2557 3.30509 23.3092 3.40076 23.3666C4.05509 23.7455 5.22601 24.1205 6.22091 24.2735C6.81785 24.3654 8.60866 24.3654 9.21708 24.2735C10.5832 24.0707 11.9798 23.5274 12.8752 22.8501C12.9786 22.7735 13.1316 22.6587 13.2196 22.5975C13.4377 22.4368 14.1074 21.748 14.2949 21.4878C14.5398 21.1549 14.8536 20.6154 14.8306 20.5618C14.823 20.535 14.6852 20.4661 14.5321 20.4126C13.9122 20.1868 13.7094 20.1103 13.6367 20.0758C13.5946 20.0567 13.4416 19.9955 13.2923 19.9419C12.9556 19.8194 12.3548 19.5937 12.2707 19.5592C12.2209 19.5401 12.1826 19.5784 12.1061 19.72C11.865 20.1677 11.513 20.5541 10.939 21.0057C10.8204 21.1013 10.3344 21.373 10.1163 21.4725C9.75662 21.6332 9.11759 21.8207 8.73877 21.8781C8.24897 21.9547 7.04361 21.9432 6.55764 21.859C4.96198 21.5873 3.73366 20.7455 3.17499 19.5363C3.05254 19.2723 2.86504 18.5988 2.86504 18.4189V18.3156H8.79617H14.7273V17.6307C14.7273 16.4406 14.5321 15.4419 14.1303 14.5733C14.0576 14.4202 14.0002 14.2863 14.0002 14.2748C14.0002 14.2672 13.9696 14.2098 13.9314 14.1524C13.8893 14.095 13.7783 13.9228 13.6826 13.7735C13.5832 13.6205 13.4722 13.4559 13.4339 13.41C13.3612 13.3105 12.573 12.5223 12.4314 12.3998C12.1329 12.1511 11.2872 11.6613 10.9161 11.5197C10.8127 11.4853 10.7133 11.4393 10.6903 11.424C10.6023 11.359 9.77958 11.1179 9.38928 11.0452C9.15969 11.0031 8.88418 10.9496 8.77703 10.9228C8.58953 10.8807 6.85994 10.8462 6.63418 10.8768ZM8.33698 13.2263C8.77321 13.2799 9.46581 13.4636 9.77576 13.609C9.91351 13.6702 10.036 13.7238 10.0436 13.7238C10.101 13.7238 10.7209 14.1638 10.8816 14.3246C11.1112 14.5427 11.3867 14.9253 11.5245 15.2161C11.6431 15.461 11.8191 16.1001 11.8191 16.2761V16.4024H7.41479H3.00662L3.03341 16.2455C3.06785 16.0388 3.27831 15.5299 3.46198 15.2161C4.0704 14.1638 5.29106 13.4062 6.65331 13.2302C7.01683 13.1842 7.96198 13.1804 8.33698 13.2263Z" fill="black"/>
<path d="M30.9722 10.8768C30.5207 10.9457 29.8625 11.0567 29.6597 11.1026C29.3995 11.1638 28.6993 11.3819 28.638 11.424C28.6189 11.4393 28.5003 11.4891 28.374 11.5388C27.647 11.8335 26.7975 12.4075 26.1699 13.0388C24.6623 14.5503 24.0347 16.6434 24.4097 18.8705C24.6164 20.0797 25.2363 21.285 26.0896 22.1383C26.5258 22.5746 27.161 23.0529 27.6546 23.3131C27.7503 23.3628 27.846 23.4202 27.8689 23.4355C27.9454 23.4929 28.6304 23.7761 28.9824 23.8947C29.4263 24.0478 30.0386 24.1932 30.559 24.2735C31.1559 24.3654 32.9467 24.3654 33.5551 24.2735C34.7528 24.0937 35.9429 23.6689 36.8727 23.0873C37.5347 22.674 38.3727 21.8858 38.7363 21.3348C38.8396 21.1779 38.9544 21.0095 38.9888 20.9559C39.1113 20.7761 39.184 20.6039 39.1648 20.5541C39.1572 20.5274 39.0232 20.4623 38.8664 20.4087C38.4646 20.2672 38.0628 20.1179 37.9748 20.0758C37.9327 20.0567 37.7796 19.9955 37.6304 19.9419C37.1023 19.7467 36.6738 19.586 36.6087 19.5592C36.559 19.5401 36.5207 19.5784 36.4442 19.72C36.2375 20.1026 35.8357 20.5733 35.4837 20.8411C35.3613 20.9368 35.2273 21.0401 35.1891 21.0746C35.1508 21.109 34.9097 21.2429 34.6533 21.3692C34.1597 21.6141 33.5819 21.8016 33.0768 21.8819C32.6215 21.9547 31.3664 21.9393 30.8957 21.859C29.5067 21.6217 28.4123 20.9712 27.7694 19.9993C27.6202 19.7735 27.425 19.3641 27.3562 19.1307C27.3179 18.9967 27.2031 18.4113 27.2031 18.3424C27.2031 18.3271 29.874 18.3156 33.138 18.3156H39.073L39.0577 17.424C39.0462 16.9381 39.0194 16.4483 38.9965 16.345C38.9697 16.2378 38.9238 16.0159 38.8893 15.8475C38.809 15.4342 38.6636 14.9942 38.4875 14.6115C38.4034 14.4355 38.3383 14.2825 38.3383 14.271C38.3383 14.2557 38.3153 14.2174 38.2847 14.1868C38.2579 14.1524 38.1929 14.049 38.1431 13.9534C37.925 13.5439 37.4314 12.97 36.9225 12.5337C36.7273 12.3692 36.5513 12.2314 36.536 12.2314C36.5207 12.2314 36.4824 12.2085 36.4556 12.1817C36.3906 12.1205 35.9926 11.8756 35.7095 11.7302C35.1355 11.4317 34.3664 11.1677 33.7273 11.0452C33.4977 11.0031 33.2222 10.9496 33.1151 10.9228C32.9276 10.8807 31.198 10.8462 30.9722 10.8768ZM32.675 13.2263C33.1113 13.2799 33.8039 13.4636 34.1138 13.609C34.2516 13.6702 34.374 13.7238 34.3817 13.7238C34.4391 13.7238 35.059 14.1638 35.2197 14.3246C35.7095 14.7952 36.0768 15.5299 36.1419 16.1613L36.1687 16.4024H31.7605H27.3562V16.3258C27.3562 16.1842 27.6278 15.5108 27.8039 15.2123C28.2171 14.5121 28.8332 13.9725 29.6253 13.6128C29.9467 13.4712 30.6317 13.2761 30.9799 13.2302C31.3549 13.1842 32.2962 13.1804 32.675 13.2263Z" fill="black"/>
<path d="M48.1905 10.8769C46.6484 11.1027 46.0438 11.2672 45.091 11.7226C43.9431 12.2698 42.9329 13.1767 42.2938 14.2404C41.9609 14.7876 41.6778 15.5683 41.5285 16.345C41.4367 16.808 41.4214 16.9802 41.4214 17.6078C41.4176 18.067 41.4367 18.4267 41.4673 18.5836C41.4979 18.7213 41.5515 18.9968 41.5936 19.1996C41.7237 19.8425 42.0375 20.5963 42.4201 21.1818C43.3729 22.6397 44.9035 23.6537 46.8321 24.1091C48.6038 24.5262 50.804 24.4305 52.3959 23.868C53.9341 23.3246 55.1701 22.4177 55.9392 21.2621C56.0311 21.1244 56.1344 20.9713 56.1688 20.9177C56.2454 20.8068 56.5132 20.2634 56.5132 20.2251C56.5132 20.2098 56.4673 20.1792 56.4099 20.1601C55.7326 19.9037 55.5298 19.8272 55.2505 19.7277C55.0706 19.6665 54.8908 19.5976 54.8487 19.5785C54.7224 19.5211 53.938 19.2341 53.9074 19.2341C53.8844 19.2341 53.7237 19.4675 53.6854 19.5593C53.6051 19.7621 52.9737 20.4777 52.6484 20.7379C52.2658 21.0402 51.6688 21.354 51.1561 21.53C50.2875 21.8246 49.0247 21.8935 48.0757 21.706C46.8359 21.4535 45.929 20.9445 45.2594 20.1142C44.9074 19.6779 44.6471 19.1461 44.517 18.5836C44.3869 18.0172 44.4023 17.0223 44.5438 16.4981C44.6586 16.0848 44.9915 15.3999 45.202 15.1435C45.6306 14.6193 46.2619 14.1256 46.8053 13.8808C47.1306 13.7353 47.7199 13.5517 48.0757 13.4866C48.4316 13.4216 49.8244 13.4216 50.1803 13.4866C51.4852 13.7277 52.5221 14.3782 53.0846 15.308C53.1229 15.3731 53.1956 15.4994 53.2454 15.5836L53.3372 15.7443L53.6701 15.6218C53.8576 15.5529 54.378 15.354 54.8295 15.1818C55.2811 15.0096 55.725 14.8412 55.813 14.8106C55.9048 14.7762 55.9852 14.7379 55.9966 14.7188C56.0464 14.6384 55.5528 13.8234 55.1739 13.3603C54.5885 12.6448 53.4673 11.8336 52.6293 11.5236C52.526 11.4853 52.4227 11.4394 52.3997 11.4241C52.304 11.3591 51.4584 11.118 51.0681 11.0453C50.8308 11.0032 50.5553 10.9496 50.4482 10.9267C50.2607 10.8846 48.4201 10.8425 48.1905 10.8769Z" fill="black"/>
<path d="M76.1819 10.8769C75.65 10.9419 74.8158 11.1064 74.4217 11.2174C73.8286 11.3934 73.0288 11.7263 72.6232 11.9712C71.7125 12.5223 71.127 13.0542 70.4956 13.9036C70.3043 14.1638 69.9446 14.8297 69.8337 15.1396C69.803 15.2123 69.761 15.3271 69.7303 15.3883C69.6462 15.5873 69.4472 16.4368 69.4089 16.7812C69.3592 17.2136 69.3592 18.0631 69.4127 18.4687C69.4625 18.8858 69.6538 19.6817 69.7533 19.8998C69.7954 19.9955 69.8298 20.0835 69.8298 20.095C69.8298 20.1409 70.1398 20.7837 70.2278 20.9177C70.6525 21.5835 70.9319 21.9202 71.4446 22.3947C72.4625 23.3399 74.0505 24.0478 75.6423 24.2697C76.6028 24.4036 78.1219 24.3769 79.0135 24.2085C79.4612 24.1243 80.1615 23.9483 80.215 23.9062C80.238 23.8909 80.3298 23.8564 80.4217 23.8297C80.9956 23.6651 81.9944 23.1141 82.5913 22.6243C83.1576 22.1651 83.7699 21.4381 84.1334 20.7952C84.2979 20.5006 84.5581 19.8501 84.6729 19.4445C85.0059 18.2353 84.9944 16.8271 84.6309 15.6562C84.4701 15.1281 84.2061 14.5427 83.9689 14.183C83.9229 14.1103 83.8388 13.9802 83.7852 13.896C83.5403 13.5095 82.9127 12.8628 82.3579 12.4228C81.8298 12.0057 80.8732 11.5235 80.1232 11.2939C80.0084 11.2557 79.84 11.2059 79.7559 11.1753C79.6678 11.1485 79.4115 11.0911 79.1819 11.0529C78.9523 11.0108 78.6538 10.9534 78.5161 10.9304C78.275 10.8845 76.4612 10.8462 76.1819 10.8769ZM77.9689 13.4598C78.1717 13.4827 78.5428 13.5593 78.7954 13.632C80.0008 13.9763 80.9421 14.6996 81.4663 15.6753C81.6347 15.9853 81.826 16.5325 81.8872 16.8616C81.9523 17.2289 81.9446 18.0478 81.8681 18.4304C81.7686 18.9585 81.4778 19.6281 81.1793 20.0184C80.9995 20.2519 80.4561 20.7837 80.2724 20.9062C79.9395 21.1281 79.4076 21.4151 79.3311 21.4151C79.312 21.4151 79.1895 21.4572 79.0633 21.507C78.937 21.5605 78.5964 21.6485 78.3018 21.7059C77.8617 21.7901 77.6627 21.8054 77.1576 21.8054C75.1946 21.8054 73.5951 20.9636 72.8298 19.5248C72.6155 19.1192 72.5275 18.8705 72.4319 18.3616C72.3056 17.6957 72.3439 17.0682 72.5467 16.3641C72.9025 15.1434 74.0811 14.0299 75.3974 13.6664C75.5237 13.632 75.6691 13.586 75.7227 13.5669C76.0594 13.4406 77.2686 13.3794 77.9689 13.4598Z" fill="black"/>
</svg>
