<svg width="20" height="20" viewBox="0 0 20 20" fill="none" xmlns="http://www.w3.org/2000/svg">
<path d="M13.959 9.29292V18.2428C15.3693 17.8628 16.908 16.8066 17.7322 16.1834C18.1212 15.8893 18.334 15.4254 18.334 14.9377V6.8799C18.334 6.16869 17.4774 5.75627 16.8871 6.15295C16.314 6.53808 15.6241 6.95289 14.9193 7.26331C14.9043 7.30848 14.8889 7.35351 14.8731 7.39837C14.6489 8.03707 14.3372 8.69138 13.959 9.29292Z" fill="#111214"/>
<path d="M7.29199 9.97925V15.6963C8.35708 15.7853 9.1787 16.4103 10.0003 17.0353C10.8219 17.6604 11.6436 18.2854 12.7087 18.3744V10.8143C12.0865 11.3747 11.2973 11.8285 10.3853 11.8285C9.56876 11.8285 8.85561 11.4605 8.29789 11.0151C7.92931 10.7208 7.59247 10.3649 7.29199 9.97925Z" fill="#111214"/>
<path d="M5.4915 5.37292C4.24652 5.83979 2.98662 6.71105 2.26878 7.25383C1.8798 7.54794 1.66699 8.01187 1.66699 8.49953V16.5574C1.66699 17.2686 2.52358 17.681 3.11388 17.2843C3.94738 16.7242 5.02789 16.1013 6.04199 15.8281V7.78091C5.71558 6.9693 5.50799 6.12536 5.4915 5.37292Z" fill="#111214"/>
<path fill-rule="evenodd" clip-rule="evenodd" d="M13.807 7.02466C14.0254 6.40264 14.1507 5.79238 14.1507 5.27728C14.1507 3.28095 12.4649 1.6626 10.3854 1.6626C8.45636 1.6626 6.86613 3.05523 6.6461 4.85036C6.62894 4.99038 6.62012 5.13284 6.62012 5.27728C6.62012 7.27362 8.50277 10.6993 10.3854 10.6993C11.7823 10.6993 13.1792 8.81336 13.807 7.02466ZM10.3854 6.18091C11.0093 6.18091 11.515 5.67517 11.515 5.05132C11.515 4.42746 11.0093 3.92173 10.3854 3.92173C9.76155 3.92173 9.25582 4.42746 9.25582 5.05132C9.25582 5.67517 9.76155 6.18091 10.3854 6.18091Z" fill="#111214"/>
</svg>
