<svg width="36" height="36" viewBox="0 0 36 36" fill="none" xmlns="http://www.w3.org/2000/svg">
<path d="M12 24.75H11C11 25.1 11.183 25.4245 11.4825 25.6057C11.7819 25.7868 12.1543 25.7982 12.4643 25.6357L12 24.75ZM2 33C2 33.5523 2.44772 34 3 34C3.55228 34 4 33.5523 4 33H2ZM16.8642 22.2L17.3285 23.0857L17.3657 23.0662L17.4011 23.0437L16.8642 22.2ZM19.187 25.8831L19.6566 26.766L19.6874 26.7496L19.717 26.7311L19.187 25.8831ZM13.1464 29.096L12.6768 28.2131L12.646 28.2295L12.6164 28.248L13.1464 29.096ZM8.95167 28.0404L9.81991 27.5443H9.81991L8.95167 28.0404ZM8.36824 25.0039C8.09423 24.5243 7.48338 24.3577 7.00386 24.6318C6.52434 24.9058 6.35775 25.5166 6.63176 25.9961L8.36824 25.0039ZM19.9 22.9167L20.7575 22.4022V22.4022L19.9 22.9167ZM13 30C13 29.4477 12.5523 29 12 29C11.4477 29 11 29.4477 11 30H13ZM11 33C11 33.5523 11.4477 34 12 34C12.5523 34 13 33.5523 13 33H11ZM19.4063 21.2131L18.8695 22.0568L20.5568 23.1305L21.0937 22.2869L19.4063 21.2131ZM26.3437 14.0369C26.6402 13.5709 26.5028 12.9528 26.0369 12.6563C25.5709 12.3598 24.9528 12.4972 24.6563 12.9631L26.3437 14.0369ZM8 6.75C8 7.30228 8.44772 7.75 9 7.75C9.55228 7.75 10 7.30228 10 6.75H8ZM28.5 17C27.9477 17 27.5 17.4477 27.5 18C27.5 18.5523 27.9477 19 28.5 19V17ZM15 8C14.4477 8 14 8.44772 14 9C14 9.55228 14.4477 10 15 10V8ZM27 10C27.5523 10 28 9.55228 28 9C28 8.44772 27.5523 8 27 8V10ZM15 12.5C14.4477 12.5 14 12.9477 14 13.5C14 14.0523 14.4477 14.5 15 14.5V12.5ZM21 14.5C21.5523 14.5 22 14.0523 22 13.5C22 12.9477 21.5523 12.5 21 12.5V14.5ZM9.5 13.5C9.5 14.6046 8.60457 15.5 7.5 15.5V17.5C9.70914 17.5 11.5 15.7091 11.5 13.5H9.5ZM7.5 15.5C6.39543 15.5 5.5 14.6046 5.5 13.5H3.5C3.5 15.7091 5.29086 17.5 7.5 17.5V15.5ZM5.5 13.5C5.5 12.3954 6.39543 11.5 7.5 11.5V9.5C5.29086 9.5 3.5 11.2909 3.5 13.5H5.5ZM7.5 11.5C8.60457 11.5 9.5 12.3954 9.5 13.5H11.5C11.5 11.2909 9.70914 9.5 7.5 9.5V11.5ZM13 24.75V24H11V24.75H13ZM2 24V33H4V24H2ZM12.4643 25.6357L17.3285 23.0857L16.3999 21.3144L11.5357 23.8643L12.4643 25.6357ZM18.7174 25.0002L12.6768 28.2131L13.616 29.9789L19.6566 26.766L18.7174 25.0002ZM9.81991 27.5443L8.36824 25.0039L6.63176 25.9961L8.08343 28.5366L9.81991 27.5443ZM17.4011 23.0437C17.9598 22.6882 18.7018 22.8633 19.0425 23.4312L20.7575 22.4022C19.8379 20.8695 17.8353 20.3967 16.3273 21.3564L17.4011 23.0437ZM12.6164 28.248C11.6535 28.8498 10.3833 28.5302 9.81991 27.5443L8.08343 28.5366C9.21017 30.5084 11.7506 31.1476 13.6764 29.944L12.6164 28.248ZM4 24C4 22.067 5.567 20.5 7.5 20.5V18.5C4.46243 18.5 2 20.9624 2 24H4ZM19.0425 23.4312C19.3727 23.9815 19.2013 24.695 18.657 25.0351L19.717 26.7311C21.1859 25.8131 21.6487 23.8876 20.7575 22.4022L19.0425 23.4312ZM13 24C13 20.9624 10.5376 18.5 7.5 18.5V20.5C9.433 20.5 11 22.067 11 24H13ZM11 30V33H13V30H11ZM21.0937 22.2869L26.3437 14.0369L24.6563 12.9631L19.4063 21.2131L21.0937 22.2869ZM10 6.75V6H8V6.75H10ZM12 4H30V2H12V4ZM32 6V15H34V6H32ZM30 17H28.5V19H30V17ZM32 15C32 16.1046 31.1046 17 30 17V19C32.2091 19 34 17.2091 34 15H32ZM30 4C31.1046 4 32 4.89543 32 6H34C34 3.79086 32.2091 2 30 2V4ZM10 6C10 4.89543 10.8954 4 12 4V2C9.79086 2 8 3.79086 8 6H10ZM15 10H27V8H15V10ZM15 14.5H21V12.5H15V14.5Z" fill="#63667B"/>
</svg>
