<svg width="10" height="10" viewBox="0 0 10 10" fill="none" xmlns="http://www.w3.org/2000/svg">
<path d="M4.03272 0.356247C4.5901 -0.118749 5.4099 -0.118749 5.96728 0.356247L6.3066 0.645418C6.54545 0.848965 6.84243 0.971976 7.15525 0.996939L7.59966 1.0324C8.32966 1.09066 8.90934 1.67034 8.9676 2.40034L9.00306 2.84475C9.02802 3.15757 9.15104 3.45455 9.35458 3.6934L9.64375 4.03272C10.1187 4.5901 10.1187 5.4099 9.64375 5.96728L9.35458 6.3066C9.15104 6.54545 9.02802 6.84243 9.00306 7.15525L8.9676 7.59966C8.90934 8.32966 8.32966 8.90934 7.59966 8.9676L7.15525 9.00306C6.84243 9.02802 6.54545 9.15103 6.3066 9.35458L5.96728 9.64375C5.4099 10.1187 4.5901 10.1187 4.03272 9.64375L3.6934 9.35458C3.45455 9.15104 3.15757 9.02802 2.84475 9.00306L2.40034 8.9676C1.67034 8.90934 1.09066 8.32966 1.0324 7.59966L0.996939 7.15525C0.971976 6.84243 0.848965 6.54545 0.645418 6.3066L0.356247 5.96728C-0.118749 5.4099 -0.118749 4.5901 0.356247 4.03272L0.645418 3.6934C0.848965 3.45455 0.971976 3.15757 0.996939 2.84475L1.0324 2.40034C1.09066 1.67034 1.67034 1.09066 2.40034 1.0324L2.84475 0.996939C3.15757 0.971976 3.45455 0.848965 3.6934 0.645418L4.03272 0.356247Z" fill="#E0B22A"/>
<path fill-rule="evenodd" clip-rule="evenodd" d="M7.09313 3.09003C7.25567 3.21644 7.28495 3.45067 7.15853 3.6132L5.16667 6.17418C4.85662 6.57281 4.27342 6.62454 3.89805 6.2867L2.63807 5.15272C2.48502 5.01498 2.47261 4.77925 2.61036 4.6262C2.7481 4.47315 2.98383 4.46074 3.13688 4.59849L4.39686 5.73247C4.45048 5.78073 4.5338 5.77334 4.57809 5.71639L6.56996 3.15542C6.69637 2.99289 6.9306 2.96361 7.09313 3.09003Z" fill="white"/>
</svg>
