<svg width="120" height="120" viewBox="0 0 120 120" fill="none" xmlns="http://www.w3.org/2000/svg">
<mask id="mask0_5689_3087" style="mask-type:alpha" maskUnits="userSpaceOnUse" x="0" y="0" width="120" height="121">
<path fill-rule="evenodd" clip-rule="evenodd" d="M120 59.5349C120 45.3933 111.91 33.2436 100.344 27.9489C93.92 25.0084 88.1007 19.8915 84.3707 13.8919C79.1695 5.52575 70.197 0 60.0002 0C49.8035 0 40.8309 5.52572 35.6297 13.8918C31.8997 19.8915 26.0803 25.0085 19.6566 27.9489C8.08977 33.2436 0 45.3933 0 59.535C0 73.5069 7.89664 85.5343 19.2414 90.9274C25.748 94.0205 31.6216 99.3678 35.2986 105.563C40.4446 114.234 49.5837 120 60.0004 120C70.4172 120 79.5564 114.233 84.7023 105.563C88.3792 99.3675 94.2526 94.0203 100.759 90.9271C112.104 85.5339 120 73.5066 120 59.5349Z" fill="#111214"/>
</mask>
<g mask="url(#mask0_5689_3087)">
<path d="M103.966 20.9976C114.623 30.3306 123.332 43.6439 128.79 62.7216C134.249 81.9366 136.589 106.779 125.931 114.602C115.273 122.425 91.7483 113.092 67.1835 114.19C42.6187 115.151 17.2741 126.268 6.48636 118.445C-4.30135 110.622 -0.53215 83.8581 2.32724 59.9766C5.18664 36.0951 7.00625 15.2331 17.794 5.90016C28.5817 -3.43283 48.3375 -1.09958 64.4541 2.60616C80.7006 6.44916 93.3079 11.8019 103.966 20.9976Z" fill="#111214" fill-opacity="0.5"/>
<path d="M42.7165 7.67072C56.5537 2.56927 72.7517 1.50132 92.1367 6.68202C111.64 11.9375 134.283 23.2426 135.202 37.6961C136.122 52.1495 115.27 69.5523 102.824 93.635C90.2601 117.643 86.0068 147.933 73.3973 153.982C60.7878 160.03 39.8221 141.838 20.8396 126.086C1.85704 110.335 -15.0951 97.2229 -17.2423 81.8222C-19.3894 66.4216 -6.61344 48.8066 5.35927 35.419C17.5209 21.9819 28.9973 12.847 42.7165 7.67072Z" fill="#111214" fill-opacity="0.5"/>
<path d="M33.8165 94.9882C20.9398 96.0543 6.91196 93.1244 -8.49832 84.1154C-23.9932 75.0147 -40.8729 60.0157 -38.5736 47.4841C-36.2743 34.9524 -14.7983 25.0689 0.941484 7.50173C16.7659 -9.9737 26.8496 -34.7711 38.8824 -36.9353C50.9152 -39.0994 64.897 -18.6302 77.7099 -0.710671C90.5228 17.2088 102.169 32.3979 100.714 46.0276C99.2582 59.6573 84.6168 71.6359 71.5613 80.2034C58.3343 88.7683 46.6086 93.8304 33.8165 94.9882Z" fill="#111214" fill-opacity="0.5"/>
<path d="M43.9338 29.084C46.6684 15.7754 53.3643 2.45381 65.9804 -10.5155C78.7041 -23.5439 97.1844 -36.2742 107.908 -30.3486C118.631 -24.4231 121.433 0.104189 132.866 21.0491C144.191 42.0531 163.818 59.3663 162.324 72.1385C160.829 84.9107 138.213 93.1419 118.249 100.926C98.2852 108.71 81.1373 116.101 69.1738 110.712C57.2103 105.323 50.5389 87.0942 46.5102 71.4478C42.5333 55.629 41.3067 42.3335 43.9338 29.084Z" fill="#111214" fill-opacity="0.5"/>
</g>
<path d="M36 60.0246V84.0492H54.9684H73.9307L74.6845 82.9767C75.1012 82.3822 75.6344 81.6222 75.8673 81.2851C76.7805 79.9736 76.9215 79.7713 77.3444 79.1769C77.9082 78.3863 78.5395 77.4915 78.8275 77.0624C78.9501 76.8786 79.2872 76.3944 79.5752 75.9899C79.8633 75.5854 80.3168 74.948 80.5742 74.5803C80.8316 74.2065 81.3096 73.5323 81.6283 73.0788C81.947 72.6253 82.4618 71.8837 82.7744 71.4424C83.087 70.995 83.5711 70.3147 83.8531 69.9225L84.3556 69.2177V52.6088V36H60.1778H36V60.0246ZM71.4547 47.8897C72.0553 48.3126 72.7907 48.8274 73.1033 49.0358C73.4097 49.2442 73.7591 49.4955 73.8755 49.5935C74.0716 49.759 74.0778 49.7835 73.9981 49.8999C73.9491 49.9674 73.7162 50.2983 73.4894 50.6293C72.7662 51.6773 71.6753 53.2278 71.0318 54.1288C70.7989 54.4536 70.4741 54.9132 70.3086 55.1523C70.0083 55.5935 69.377 56.5006 68.6661 57.5057C68.0655 58.3576 67.1952 59.6017 66.6314 60.4107C66.3494 60.8029 65.902 61.4403 65.6324 61.8203C65.3627 62.2003 65.0379 62.66 64.9153 62.8438C64.6211 63.2728 64.0021 64.1615 63.4628 64.9153C62.6906 66.0124 62.3535 66.4843 61.949 67.0726C61.7284 67.3913 61.2074 68.139 60.7846 68.7274C60.3678 69.3157 59.8407 70.0634 59.6201 70.3821C59.2279 70.9521 58.8785 71.4547 58.1676 72.4536C57.9776 72.7294 57.7999 72.9562 57.7815 72.9562C57.7631 72.9562 57.5241 72.7907 57.2483 72.5885C56.7335 72.2146 55.7529 71.5221 54.9378 70.9644C54.6865 70.7928 54.2084 70.4557 53.8836 70.2228C52.8356 69.4751 52.1798 69.0154 51.5731 68.5926C50.2922 67.7039 49.9857 67.4833 49.4525 67.1033C49.1522 66.8826 48.7232 66.5885 48.5026 66.4414C48.282 66.2943 47.8775 66.0124 47.6017 65.8101C47.0072 65.3872 46.4311 64.9766 46.3453 64.9214C46.284 64.8847 46.8724 63.9776 47.4914 63.1502C47.6262 62.9664 47.8407 62.66 47.9694 62.4761C48.5026 61.6855 49.0113 60.9746 49.0542 60.9562C49.0787 60.95 49.4096 61.1645 49.7958 61.4403C50.1819 61.7161 50.6354 62.0287 50.8009 62.1451C50.9725 62.2555 51.2789 62.4761 51.4934 62.6293C51.7079 62.7825 52.1492 63.089 52.474 63.3157C52.7988 63.5425 53.2401 63.8551 53.4485 64.0083C53.8039 64.2657 54.6252 64.8418 56.0287 65.8162C56.3412 66.0369 56.6048 66.2146 56.6232 66.2146C56.6354 66.2146 56.8499 65.9204 57.1073 65.5527C57.3647 65.1911 57.6896 64.7315 57.8305 64.5292C57.9776 64.327 58.2166 63.9838 58.3698 63.7631C58.6272 63.3893 58.8785 63.0338 59.9204 61.5629C60.1472 61.2381 60.4781 60.7662 60.6559 60.5088C60.8275 60.2514 61.3607 59.4914 61.8326 58.8295C62.3045 58.1615 62.8377 57.4076 63.0093 57.1502C63.3647 56.6354 63.7815 56.0471 64.9276 54.4168C66.282 52.4985 66.6926 51.9102 66.9746 51.5057C67.1278 51.285 67.4158 50.8744 67.6242 50.5864C67.8265 50.2983 68.1451 49.8448 68.3351 49.5751C68.7213 49.0174 69.3403 48.1226 69.8244 47.4362C70.1186 47.0133 70.1676 46.9765 70.2657 47.044C70.327 47.0869 70.8602 47.4668 71.4547 47.8897Z" fill="#FFFF00"/>
</svg>
