<svg width="50" height="46" viewBox="0 0 50 46" fill="none" xmlns="http://www.w3.org/2000/svg">
<path opacity="0.4" d="M19.92 3.4148C22.1341 -0.471597 27.8659 -0.471604 30.08 3.4148L49.2603 37.081C51.4122 40.8582 48.6114 45.5 44.1803 45.5H5.81971C1.38865 45.5 -1.41224 40.8582 0.739676 37.081L19.92 3.4148Z" fill="#E0B22A"/>
<path d="M27.5 35.5C27.5 36.8807 26.3807 38 25 38C23.6193 38 22.5 36.8807 22.5 35.5C22.5 34.1193 23.6193 33 25 33C26.3807 33 27.5 34.1193 27.5 35.5Z" fill="#E0B22A"/>
<path fill-rule="evenodd" clip-rule="evenodd" d="M25 13.625C26.0355 13.625 26.875 14.4645 26.875 15.5V28C26.875 29.0355 26.0355 29.875 25 29.875C23.9645 29.875 23.125 29.0355 23.125 28V15.5C23.125 14.4645 23.9645 13.625 25 13.625Z" fill="#E0B22A"/>
</svg>
