<svg width="80" height="80" viewBox="0 0 80 80" fill="none" xmlns="http://www.w3.org/2000/svg">
<circle cx="40" cy="40" r="40" fill="#77C388"/>
<path fill-rule="evenodd" clip-rule="evenodd" d="M36.9619 22.0131L27.5571 26.3932C24.8367 27.6602 23.0415 30.4974 23.2146 33.6117C23.8914 45.7867 27.2937 51.1467 36.1346 57.4187C38.4767 59.0803 41.5639 59.0843 43.9042 57.4201C52.7723 51.1139 56.0529 45.6782 56.7891 33.6538C56.9811 30.519 55.183 27.6516 52.4436 26.3758L43.0761 22.0131C41.1298 21.1066 38.9082 21.1066 36.9619 22.0131ZM38.1365 49.3333C38.1365 48.3023 38.9723 47.4666 40.0032 47.4666C41.0341 47.4666 41.8699 48.3023 41.8699 49.3333C41.8699 50.3642 41.0341 51.1999 40.0032 51.1999C38.9723 51.1999 38.1365 50.3642 38.1365 49.3333ZM38.6032 43.7333C38.6032 44.5065 39.23 45.1333 40.0032 45.1333C40.7764 45.1333 41.4032 44.5065 41.4032 43.7333L41.4032 30.6666C41.4032 29.8934 40.7764 29.2666 40.0032 29.2666C39.23 29.2666 38.6032 29.8934 38.6032 30.6666L38.6032 43.7333Z" fill="white"/>
</svg>
