<svg width="80" height="80" viewBox="0 0 80 80" fill="none" xmlns="http://www.w3.org/2000/svg">
<path fill-rule="evenodd" clip-rule="evenodd" d="M40.0003 73.3333C58.4098 73.3333 73.3337 58.4095 73.3337 40C73.3337 21.5905 58.4098 6.66663 40.0003 6.66663C21.5908 6.66663 6.66699 21.5905 6.66699 40C6.66699 58.4095 21.5908 73.3333 40.0003 73.3333ZM31.6488 55.2128C30.6167 56.1183 29.0455 56.022 28.1318 54.9942C27.2145 53.9622 27.3075 52.382 28.3394 51.4647L29.2563 50.7602C29.7974 50.3837 30.5738 49.8981 31.5659 49.4171C33.5504 48.4549 36.4229 47.4999 40.0004 47.4999C43.5778 47.4999 46.4503 48.4549 48.4348 49.4171C49.4269 49.8981 50.2033 50.3837 50.7444 50.7602C51.0154 50.9487 51.2287 51.1107 51.382 51.2325L51.6613 51.4647C52.6932 52.382 52.7862 53.9622 51.8689 54.9942C50.9552 56.022 49.384 56.1183 48.3518 55.2127L47.8891 54.8647C47.5318 54.6161 46.98 54.2684 46.2534 53.9161C44.8004 53.2116 42.6729 52.4999 40.0004 52.4999C37.3278 52.4999 35.2003 53.2116 33.7473 53.9161C33.0207 54.2684 32.4689 54.6161 32.1116 54.8647L31.6488 55.2128ZM56.667 33.3333C56.667 35.1742 55.1746 36.6666 53.3337 36.6666C51.4927 36.6666 50.0003 35.1742 50.0003 33.3333C50.0003 31.4923 51.4927 30 53.3337 30C55.1746 30 56.667 31.4923 56.667 33.3333ZM26.667 36.6666C28.5079 36.6666 30.0003 35.1742 30.0003 33.3333C30.0003 31.4923 28.5079 30 26.667 30C24.826 30 23.3337 31.4923 23.3337 33.3333C23.3337 35.1742 24.826 36.6666 26.667 36.6666Z" fill="#EE7C7C"/>
</svg>
